/* XPM */
static char *_2da6472eabd4f2bd355bf0f7ae759cb8xCZCqjPxambuSIA[] = {
/* columns rows colors chars-per-pixel */
"70 70 126 2 ",
"   c #000000",
".  c #070808",
"X  c #0B0B0B",
"o  c #100F11",
"O  c #131313",
"+  c #181717",
"@  c #181718",
"#  c #1B1B1B",
"$  c #1E1F21",
"%  c #1F2124",
"&  c #222224",
"*  c #24252A",
"=  c #26292F",
"-  c #29292C",
";  c #2C2D32",
":  c #272F39",
">  c #2F3136",
",  c #303236",
"<  c #34353B",
"1  c #35383D",
"2  c #383B3F",
"3  c #363740",
"4  c #343943",
"5  c #3A3B44",
"6  c #363F4B",
"7  c #3C3E4A",
"8  c #3E414C",
"9  c #3E4352",
"0  c #42434C",
"q  c #44494D",
"w  c #424653",
"e  c #444955",
"r  c #494C55",
"t  c #414759",
"y  c #454B5B",
"u  c #4A4E5B",
"i  c #45515E",
"p  c #4C505D",
"a  c #444E61",
"s  c #4A4F60",
"d  c #465264",
"f  c #4C5363",
"g  c #4E5864",
"h  c #4A556A",
"j  c #4E5B6D",
"k  c #515764",
"l  c #555B64",
"z  c #535C6B",
"x  c #505A71",
"c  c #53616F",
"v  c #5C606C",
"b  c #556274",
"n  c #5B6473",
"m  c #54637A",
"M  c #5B6679",
"N  c #56687F",
"B  c #5D6A7A",
"V  c #626C7B",
"C  c #64727E",
"Z  c #566982",
"A  c #5D6F84",
"S  c #5B7086",
"D  c #57728E",
"F  c #58708A",
"G  c #5E7488",
"H  c #5C738C",
"J  c #647182",
"K  c #637184",
"L  c #617087",
"P  c #62748B",
"I  c #647A8C",
"U  c #667C8E",
"Y  c #6D7B8B",
"T  c #6E7C8B",
"R  c #6A7C8C",
"E  c #657B91",
"W  c #627A96",
"Q  c #647C94",
"!  c #6D7D94",
"~  c #717F90",
"^  c #6D8092",
"/  c #64809C",
"(  c #6C829A",
")  c #6C859B",
"_  c #6A819D",
"`  c #6D879D",
"'  c #6D879F",
"]  c #748494",
"[  c #75879B",
"{  c #71869D",
"}  c #788D9F",
"|  c #6885A1",
" . c #6C85A0",
".. c #6C87A1",
"X. c #6C86A5",
"o. c #6D89A3",
"O. c #6A88A5",
"+. c #698BA9",
"@. c #6F8CA9",
"#. c #758BA1",
"$. c #708CA6",
"%. c #728DA7",
"&. c #768DA5",
"*. c #7A8DA4",
"=. c #728DA9",
"-. c #718FAD",
";. c #7691A7",
":. c #7C92A5",
">. c #7A93AD",
",. c #7B95AC",
"<. c #7E98AD",
"1. c #6F90B3",
"2. c #7092B1",
"3. c #7592B1",
"4. c #7796B3",
"5. c #7897B5",
"6. c #7C9EBA",
"7. c #8797A7",
"8. c #8097AB",
"9. c #899FAF",
"0. c #829CB3",
"q. c #889FB7",
"w. c #84A0B6",
"e. c #90A3B3",
"r. c #8AAAC5",
"t. c #87ACC8",
/* pixels */
"                                                                                                                                            ",
"                                                                                                                                            ",
"                                                                                                                                            ",
"                                                                                                                                            ",
"                                                                                                                                            ",
"                                                                                                                                            ",
"                                                                                                                                            ",
"                                                                                                                                            ",
"                                                                                                                                            ",
"                                                                                                                                            ",
"                                                                X 8 v <                                                                     ",
"                                                                < 0 z Y -                                                                   ",
"                                                              & 5 e p T V .                                                                 ",
"                                                              > 5 0 w B [ ,                                                                 ",
"                                                              0 5 5 w j #.k                                                                 ",
"                                                            O t 2 0 w z Q ! .                                                               ",
"                                                            # 9 5 0 u h H >.O                                                               ",
"                                                            ; y 5 6 9 f F -.&                                                               ",
"                                                            * y 5 1 y a D 1.,                                                               ",
"                                                            : f 5 5 y f Z +.3                                                               ",
"                                                            4 y 7 5 y a Z 2.6                                                               ",
"                                                    O & 3 > h y 5 w t h b 2.B u k 8 % X                                                     ",
"                                                  , y d 9 6 a t 5 7 y s z 3.A n  .O._ B %                                                   ",
"                                              X 6 x Z m d 9 a 8 5 w y h j ' G r N ( X.%.U +                                                 ",
"                                              , f x x b e < y w 7 9 a h m @.F 1 k P E &.{ p                                                 ",
"                                              5 w y y 6 % . f w 7 7 s s j W W & $ 5 8 f J l                                                 ",
"                                              @ o .       X y w 7 7 t a h W | *         X X                                                 ",
"                                                          o e u 9 7 w t h G X.;                                                             ",
"                                                          O y w 7 3 w e a S / 6                                                             ",
"                                                          O p r 5 5 w p y Z %.i                                                             ",
"                                                          O y y 5 1 e t f S @.b                                                             ",
"                                                          O w e 5 3 0 i h B @.B                                                             ",
"                                                          X u r 3 5 0 s x P  .V                                                             ",
"                                                          X u i 7 3 7 y k L %.b                                                             ",
"                                                            r l w 5 7 r z J ' b                                                             ",
"                                                            e f 7 5 r f z Y ' f                                                             ",
"                                                            3 f u 5 r z V R | i                                                             ",
"                                                            * z p 7 q z n E ;.8                                                             ",
"                                                            $ f p 0 0 n J &.<.6                                                             ",
"                                                            O u u r 7 V J o.4.&                                                             ",
"                                                              r k r r ~ _ 4.o.O                                                             ",
"                                                              4 k w r ~ I 6.^                                                               ",
"                                                              * k y r [  .t.c                                                               ",
"                                                              X u w r *.=.r.4                                                               ",
"                                                                0 r p [ 5.r.$                                                               ",
"                                                                - u q *.r.8..                                                               ",
"                                                                X r w q.r.a                                                                 ",
"                                                                  0 0 q.q.;                                                                 ",
"                                                                  * 0 w.;.X                                                                 ",
"                                                                  o q 0.j                                                                   ",
"                                                                    2 <.4                                                                   ",
"                                                                    ; #.>                                                                   ",
"                                                                    & ] &                                                                   ",
"                                                                    @ ] #                                                                   ",
"                                                                    O [ *                                                                   ",
"                                                                  X - [ e .                                                                 ",
"                                                                O < p ] I c 1 X                                                             ",
"                                                            X 2 V L M V I ;.,.J -                                                           ",
"                                                          X 0 I ` ;.] V ^ 0.0.,.[ 0                                                         ",
"                                                          1 M ) :.<.7.n ` <.e.9.] l -                                                       ",
"                                                        O k k g V C l # 1 l r q 0 0 0 .                                                     ",
"                                                        O *                         # X                                                     ",
"                                                                                                                                            ",
"                                                                                                                                            ",
"                                                                                                                                            ",
"                                                                                                                                            ",
"                                                                                                                                            ",
"                                                                                                                                            ",
"                                                                                                                                            ",
"                                                                                                                                            "
};
