/* XPM */
static char *cd24e51332624880decb40a2eb61e8186jSS7ipt6tkhi8sH[] = {
/* columns rows colors chars-per-pixel */
"43 43 198 2 ",
"   c #000000",
".  c #0E0A06",
"X  c #04050C",
"o  c #0F0C0E",
"O  c #1A130E",
"+  c #050710",
"@  c #0C0E17",
"#  c #1D1719",
"$  c #2A1E15",
"%  c #3D291A",
"&  c #0A0F22",
"*  c #0D132A",
"=  c #121922",
"-  c #0E183D",
";  c #101834",
":  c #121B3B",
">  c #2B1426",
",  c #371329",
"<  c #172925",
"1  c #4E3623",
"2  c #52342E",
"3  c #52463A",
"4  c #6F523F",
"5  c #121D43",
"6  c #161E4A",
"7  c #161F50",
"8  c #192249",
"9  c #1A2657",
"0  c #1D2854",
"q  c #252C5E",
"w  c #303858",
"e  c #1C2C66",
"r  c #232D6B",
"t  c #22326E",
"y  c #2B336E",
"u  c #253676",
"i  c #24347A",
"p  c #283778",
"a  c #2D3C7D",
"s  c #36377A",
"d  c #463749",
"f  c #712752",
"g  c #493B7D",
"h  c #583A73",
"j  c #793C66",
"k  c #384675",
"l  c #3D4F73",
"z  c #48474E",
"x  c #554C55",
"c  c #575757",
"v  c #734A52",
"b  c #494D79",
"n  c #734D6F",
"m  c #6D5D75",
"M  c #75656B",
"N  c #666B79",
"B  c #70727E",
"V  c #875B3B",
"C  c #85265F",
"Z  c #873267",
"A  c #993A7D",
"S  c #AD2A7C",
"D  c #BC267B",
"F  c #90425E",
"G  c #875B5E",
"H  c #956651",
"J  c #AA6D58",
"K  c #B27F5A",
"L  c #8E5273",
"P  c #876879",
"I  c #9B7E79",
"U  c #AC786C",
"Y  c #D2787D",
"T  c #B68168",
"R  c #A98171",
"E  c #B38A76",
"W  c #B0907D",
"Q  c #D9926C",
"!  c #C9947A",
"~  c #D49777",
"^  c #EE9A75",
"/  c #C1A07E",
"(  c #E9A476",
")  c #F2AF7B",
"_  c #F6B27C",
"`  c #2E3F83",
"'  c #323E82",
"]  c #3C3D85",
"[  c #4C3B81",
"{  c #344285",
"}  c #314489",
"|  c #355293",
" . c #47448C",
".. c #534788",
"X. c #4B4A95",
"o. c #544992",
"O. c #5A4995",
"+. c #5C5596",
"@. c #784384",
"#. c #694996",
"$. c #664B98",
"%. c #744A96",
"&. c #58738C",
"*. c #5D7C97",
"=. c #75768E",
"-. c #677B97",
";. c #4F7EA8",
":. c #6F72AD",
">. c #B92D81",
",. c #C9358E",
"<. c #D93B9C",
"1. c #E53897",
"2. c #F73FA9",
"3. c #834E89",
"4. c #9A538E",
"5. c #864A97",
"6. c #8B4C9A",
"7. c #964E9D",
"8. c #AC4F98",
"9. c #B75D99",
"0. c #886886",
"q. c #857987",
"w. c #9F708E",
"e. c #8B7F95",
"r. c #AE6D8F",
"t. c #9D5BA5",
"y. c #B54FA1",
"u. c #A655A1",
"i. c #B855A4",
"p. c #916EA6",
"a. c #CD4297",
"s. c #C4539D",
"d. c #C5659F",
"f. c #C57B93",
"g. c #D653AC",
"h. c #D55AA8",
"j. c #E84EAD",
"k. c #D46BA9",
"l. c #AA79C6",
"z. c #EE57C2",
"x. c #D879C6",
"c. c #F467C7",
"v. c #508492",
"b. c #7B8187",
"n. c #6B8B9A",
"m. c #5694A2",
"M. c #7887A5",
"N. c #7AA4A6",
"B. c #6AAAB9",
"V. c #73B3B3",
"C. c #6AC2B6",
"Z. c #79C7C3",
"A. c #7BD3CA",
"S. c #8C8387",
"D. c #978388",
"F. c #86899B",
"G. c #978697",
"H. c #948B92",
"J. c #8C9397",
"K. c #A98E8B",
"L. c #B18B85",
"P. c #B99987",
"I. c #A5859F",
"U. c #A79595",
"Y. c #B59A9C",
"T. c #AAA499",
"R. c #839BA8",
"E. c #8F8FB1",
"W. c #AA8AA9",
"Q. c #A996A8",
"!. c #BA97BF",
"~. c #94A6AE",
"^. c #A4A4AB",
"/. c #ACB3BC",
"(. c #CC878B",
"). c #D98B8B",
"_. c #C69886",
"`. c #D89888",
"'. c #C29D94",
"]. c #EE8F8C",
"[. c #D2A384",
"{. c #DAA686",
"}. c #CCA696",
"|. c #E8AD85",
" X c #C49DBB",
".X c #D0A9B4",
"XX c #EDB3A6",
"oX c #9A99DA",
"OX c #B6AAC3",
"+X c #81B2E2",
"@X c #DFACD0",
"#X c #84CAD2",
"$X c #85E3CF",
"%X c #87F7CB",
"&X c #93D4E2",
"*X c #9CE4ED",
"=X c #DAC4C5",
"-X c #DFCFE6",
/* pixels */
"                                                                                      ",
"                                                                                      ",
"                                                                                      ",
"                                                                                      ",
"                                                                                      ",
"                                                                                      ",
"                                                                                      ",
"                                                                                      ",
"                                                                                      ",
"                                                                                      ",
"                                              @ q u 8                                 ",
"                                        2 0.6.%. .{ r :                               ",
"                                    . H T.T.9.u.5.X.} e           +                   ",
"                          X 8 t ;   V H.P._.B.f.s.o.} *       > g ` &                 ",
"                        o 4.#.p * % W ~ L.F.T.].F.O.a +   o F h.5.' u : +             ",
"                        c (.6.s   B V.V.%XC.J.H.Y.+.*   1 ~ (.h.$.o. .} a             ",
"                      < C.N.r.[ < $XA.B.$XZ.%Xn.V.d O T ) ( I.9.i.6.#. .i             ",
"                      x / /.'.9.l T.H.U.D.J.#XM $ z H.^.S.[.|.].u.6.%.' u X           ",
"                > d X U P.U.{.~ _.}.U.S.q.G./.~./.N.B.e.{.|.|.).h.7.O.X.u 9           ",
"              @ ^.c. Xl.oX&X*X+XE.-.' q s n.G.M.~..Xn.-.{.[._.f.u.y.5.$.a 8           ",
"              D.P x.g.t.k.z.:.*XA.} i 9 9 k &.n.N.Q.F.R._ |.( ).k.9.5.o.p +           ",
"            , .Xs.j.@X=X~.s.<.X.A.;.i 7 9 k b &.M.Y.^.H.~ [._.k.i.7.O.` u             ",
"            j z.j.s.-XG v  X,.%.| Z.` 8 r k B B K.}.J.|.! |.{.r.7.6.#.' 5             ",
"          L c.2.2.j.p.OX X8.,.y.[ m.;.0 k =.q.Y.XX`.v v Q _.`.d.7.#.] ;               ",
"          Z a.1.1.1.<.D D S >.A ' } M c q.D.F.'.G.U #.0   2 L d.u.[ 5                 ",
"            n L f C C f L w.Z Z y J R R U W E r.@.s u 6       . o                     ",
"            e.n > , , 0.!.W.4.j d J K =.m ! Y ..[ i e :                               ",
"            H..XG.Q.!.W.W.w.G.P x H I R P *.v.%.@.s -                                 ",
"            # N m x I e.w.0.m b w M R E ^ Y 3.@.g r 5                                 ",
"                  O 3 =           U B ~ N r.4.n p 9 +                                 ",
"                                  4 q.b.0.n.b s e &                                   ",
"                                  . ~ ! @.h [ r -                                     ",
"                                    # G h q : X                                       ",
"                                                                                      ",
"                                                                                      ",
"                                                                                      ",
"                                                                                      ",
"                                                                                      ",
"                                                                                      ",
"                                                                                      ",
"                                                                                      ",
"                                                                                      ",
"                                                                                      "
};
